<mxfile host="app.diagrams.net" modified="2022-11-29T08:29:18.857Z" agent="5.0 (Windows NT 10.0; Win64; x64) AppleWebKit/537.36 (KHTML, like Gecko) Chrome/107.0.0.0 Safari/537.36" etag="-vm4-fn6AJQp7a5k4x7F" version="20.5.3" type="github" pages="3">
  <diagram id="1l9ksmtfXEEntw6yY3pm" name="Cache">
    <mxGraphModel dx="1178" dy="663" grid="1" gridSize="10" guides="1" tooltips="1" connect="1" arrows="1" fold="1" page="1" pageScale="1" pageWidth="850" pageHeight="1100" math="0" shadow="0">
      <root>
        <mxCell id="0" />
        <mxCell id="1" parent="0" />
        <mxCell id="srKJ6zcgj-u26PhT9sSR-1" value="IDLE" style="ellipse;whiteSpace=wrap;html=1;" vertex="1" parent="1">
          <mxGeometry x="100" y="310" width="120" height="120" as="geometry" />
        </mxCell>
        <mxCell id="srKJ6zcgj-u26PhT9sSR-2" value="WRITE" style="ellipse;whiteSpace=wrap;html=1;" vertex="1" parent="1">
          <mxGeometry x="100" y="540" width="120" height="120" as="geometry" />
        </mxCell>
        <mxCell id="srKJ6zcgj-u26PhT9sSR-3" value="CHECK" style="ellipse;whiteSpace=wrap;html=1;" vertex="1" parent="1">
          <mxGeometry x="410" y="540" width="120" height="120" as="geometry" />
        </mxCell>
        <mxCell id="srKJ6zcgj-u26PhT9sSR-4" value="READ" style="ellipse;whiteSpace=wrap;html=1;" vertex="1" parent="1">
          <mxGeometry x="410" y="310" width="120" height="120" as="geometry" />
        </mxCell>
        <mxCell id="srKJ6zcgj-u26PhT9sSR-6" value="" style="endArrow=classic;html=1;rounded=0;entryX=0.358;entryY=0.016;entryDx=0;entryDy=0;exitX=0.356;exitY=0.975;exitDx=0;exitDy=0;entryPerimeter=0;exitPerimeter=0;" edge="1" parent="1" source="srKJ6zcgj-u26PhT9sSR-1" target="srKJ6zcgj-u26PhT9sSR-2">
          <mxGeometry width="50" height="50" relative="1" as="geometry">
            <mxPoint x="143" y="430" as="sourcePoint" />
            <mxPoint x="143" y="540" as="targetPoint" />
          </mxGeometry>
        </mxCell>
        <mxCell id="srKJ6zcgj-u26PhT9sSR-7" value="core_req &amp;amp; core_write" style="text;html=1;strokeColor=none;fillColor=none;align=center;verticalAlign=middle;whiteSpace=wrap;rounded=0;rotation=0;" vertex="1" parent="1">
          <mxGeometry x="63" y="470" width="80" height="30" as="geometry" />
        </mxCell>
        <mxCell id="srKJ6zcgj-u26PhT9sSR-9" value="" style="verticalLabelPosition=bottom;verticalAlign=top;html=1;shape=mxgraph.basic.arc;startAngle=0.3;endAngle=0.8852538499623647;rotation=90;" vertex="1" parent="1">
          <mxGeometry x="83" y="301" width="55" height="50" as="geometry" />
        </mxCell>
        <mxCell id="srKJ6zcgj-u26PhT9sSR-10" value="!core_req" style="text;html=1;strokeColor=none;fillColor=none;align=center;verticalAlign=middle;whiteSpace=wrap;rounded=0;rotation=0;" vertex="1" parent="1">
          <mxGeometry x="83" y="270" width="60" height="30" as="geometry" />
        </mxCell>
        <mxCell id="srKJ6zcgj-u26PhT9sSR-12" value="" style="endArrow=classic;html=1;rounded=0;entryX=0.28;entryY=0.05;entryDx=0;entryDy=0;entryPerimeter=0;exitX=0.158;exitY=0.132;exitDx=0;exitDy=0;exitPerimeter=0;" edge="1" parent="1" source="srKJ6zcgj-u26PhT9sSR-9">
          <mxGeometry width="50" height="50" relative="1" as="geometry">
            <mxPoint x="129.2" y="307.08000000000004" as="sourcePoint" />
            <mxPoint x="135.60000000000002" y="316.00000000000006" as="targetPoint" />
          </mxGeometry>
        </mxCell>
        <mxCell id="srKJ6zcgj-u26PhT9sSR-13" value="" style="endArrow=classic;html=1;rounded=0;exitX=0.942;exitY=0.254;exitDx=0;exitDy=0;entryX=0.051;entryY=0.257;entryDx=0;entryDy=0;exitPerimeter=0;entryPerimeter=0;" edge="1" parent="1" source="srKJ6zcgj-u26PhT9sSR-1" target="srKJ6zcgj-u26PhT9sSR-4">
          <mxGeometry width="50" height="50" relative="1" as="geometry">
            <mxPoint x="220" y="342" as="sourcePoint" />
            <mxPoint x="410" y="342" as="targetPoint" />
          </mxGeometry>
        </mxCell>
        <mxCell id="srKJ6zcgj-u26PhT9sSR-14" value="core_req &amp;amp; !core_write &amp;amp;&lt;br&gt;!valid[index]" style="text;html=1;strokeColor=none;fillColor=none;align=center;verticalAlign=middle;whiteSpace=wrap;rounded=0;rotation=0;" vertex="1" parent="1">
          <mxGeometry x="270" y="302" width="90" height="30" as="geometry" />
        </mxCell>
        <mxCell id="srKJ6zcgj-u26PhT9sSR-16" value="core_req &amp;amp; !core_write &amp;amp;&lt;br&gt;valid[index]" style="text;html=1;strokeColor=none;fillColor=none;align=center;verticalAlign=middle;whiteSpace=wrap;rounded=0;rotation=20;" vertex="1" parent="1">
          <mxGeometry x="240" y="408" width="90" height="30" as="geometry" />
        </mxCell>
        <mxCell id="srKJ6zcgj-u26PhT9sSR-17" value="" style="endArrow=classic;html=1;rounded=0;entryX=0;entryY=0;entryDx=0;entryDy=0;exitX=1;exitY=1;exitDx=0;exitDy=0;" edge="1" parent="1" source="srKJ6zcgj-u26PhT9sSR-1" target="srKJ6zcgj-u26PhT9sSR-3">
          <mxGeometry width="50" height="50" relative="1" as="geometry">
            <mxPoint x="400" y="460" as="sourcePoint" />
            <mxPoint x="450" y="410" as="targetPoint" />
            <Array as="points">
              <mxPoint x="330" y="470" />
            </Array>
          </mxGeometry>
        </mxCell>
        <mxCell id="srKJ6zcgj-u26PhT9sSR-19" value="" style="endArrow=classic;html=1;rounded=0;entryX=0.5;entryY=1;entryDx=0;entryDy=0;exitX=0.5;exitY=0;exitDx=0;exitDy=0;" edge="1" parent="1" source="srKJ6zcgj-u26PhT9sSR-3" target="srKJ6zcgj-u26PhT9sSR-4">
          <mxGeometry width="50" height="50" relative="1" as="geometry">
            <mxPoint x="400" y="460" as="sourcePoint" />
            <mxPoint x="450" y="410" as="targetPoint" />
          </mxGeometry>
        </mxCell>
        <mxCell id="srKJ6zcgj-u26PhT9sSR-20" value="!hit" style="text;html=1;strokeColor=none;fillColor=none;align=center;verticalAlign=middle;whiteSpace=wrap;rounded=0;" vertex="1" parent="1">
          <mxGeometry x="460" y="470" width="60" height="30" as="geometry" />
        </mxCell>
        <mxCell id="srKJ6zcgj-u26PhT9sSR-22" value="" style="endArrow=classic;html=1;rounded=0;exitX=0;exitY=0;exitDx=0;exitDy=0;entryX=1;entryY=1;entryDx=0;entryDy=0;" edge="1" parent="1" source="srKJ6zcgj-u26PhT9sSR-3" target="srKJ6zcgj-u26PhT9sSR-1">
          <mxGeometry width="50" height="50" relative="1" as="geometry">
            <mxPoint x="400" y="460" as="sourcePoint" />
            <mxPoint x="190" y="450" as="targetPoint" />
            <Array as="points">
              <mxPoint x="300" y="510" />
            </Array>
          </mxGeometry>
        </mxCell>
        <mxCell id="srKJ6zcgj-u26PhT9sSR-23" value="hit" style="text;html=1;strokeColor=none;fillColor=none;align=center;verticalAlign=middle;whiteSpace=wrap;rounded=0;rotation=15;" vertex="1" parent="1">
          <mxGeometry x="320" y="506" width="60" height="30" as="geometry" />
        </mxCell>
        <mxCell id="srKJ6zcgj-u26PhT9sSR-24" value="" style="endArrow=classic;html=1;rounded=0;entryX=0.639;entryY=0.978;entryDx=0;entryDy=0;exitX=0.637;exitY=0.022;exitDx=0;exitDy=0;entryPerimeter=0;exitPerimeter=0;" edge="1" parent="1" source="srKJ6zcgj-u26PhT9sSR-2" target="srKJ6zcgj-u26PhT9sSR-1">
          <mxGeometry width="50" height="50" relative="1" as="geometry">
            <mxPoint x="177" y="540" as="sourcePoint" />
            <mxPoint x="177" y="430" as="targetPoint" />
          </mxGeometry>
        </mxCell>
        <mxCell id="srKJ6zcgj-u26PhT9sSR-25" value="!D_wait" style="text;html=1;strokeColor=none;fillColor=none;align=center;verticalAlign=middle;whiteSpace=wrap;rounded=0;" vertex="1" parent="1">
          <mxGeometry x="170" y="476" width="60" height="30" as="geometry" />
        </mxCell>
        <mxCell id="srKJ6zcgj-u26PhT9sSR-27" value="D_wait" style="text;html=1;strokeColor=none;fillColor=none;align=center;verticalAlign=middle;whiteSpace=wrap;rounded=0;rotation=0;" vertex="1" parent="1">
          <mxGeometry x="95.05" y="680" width="60" height="30" as="geometry" />
        </mxCell>
        <mxCell id="srKJ6zcgj-u26PhT9sSR-29" value="" style="group;rotation=-99;" vertex="1" connectable="0" parent="1">
          <mxGeometry x="100" y="630" width="50.09999999999991" height="55" as="geometry" />
        </mxCell>
        <mxCell id="srKJ6zcgj-u26PhT9sSR-26" value="" style="verticalLabelPosition=bottom;verticalAlign=top;html=1;shape=mxgraph.basic.arc;startAngle=0.3;endAngle=0.8852538499623647;rotation=-9;" vertex="1" parent="srKJ6zcgj-u26PhT9sSR-29">
          <mxGeometry x="-2" y="3" width="55" height="50" as="geometry" />
        </mxCell>
        <mxCell id="srKJ6zcgj-u26PhT9sSR-28" value="" style="endArrow=classic;html=1;rounded=0;entryX=0.28;entryY=0.05;entryDx=0;entryDy=0;entryPerimeter=0;exitX=0.158;exitY=0.132;exitDx=0;exitDy=0;exitPerimeter=0;" edge="1" parent="srKJ6zcgj-u26PhT9sSR-29" source="srKJ6zcgj-u26PhT9sSR-26">
          <mxGeometry width="50" height="50" relative="1" as="geometry">
            <mxPoint x="3" y="12" as="sourcePoint" />
            <mxPoint x="11" y="4" as="targetPoint" />
          </mxGeometry>
        </mxCell>
        <mxCell id="srKJ6zcgj-u26PhT9sSR-30" value="" style="group;rotation=94;" vertex="1" connectable="0" parent="1">
          <mxGeometry x="500" y="300" width="50.09999999999991" height="55" as="geometry" />
        </mxCell>
        <mxCell id="srKJ6zcgj-u26PhT9sSR-31" value="" style="verticalLabelPosition=bottom;verticalAlign=top;html=1;shape=mxgraph.basic.arc;startAngle=0.3;endAngle=0.8852538499623647;rotation=184;" vertex="1" parent="srKJ6zcgj-u26PhT9sSR-30">
          <mxGeometry x="-3" y="2" width="55" height="50" as="geometry" />
        </mxCell>
        <mxCell id="srKJ6zcgj-u26PhT9sSR-32" value="" style="endArrow=classic;html=1;rounded=0;entryX=0.28;entryY=0.05;entryDx=0;entryDy=0;entryPerimeter=0;exitX=0.158;exitY=0.132;exitDx=0;exitDy=0;exitPerimeter=0;" edge="1" parent="srKJ6zcgj-u26PhT9sSR-30" source="srKJ6zcgj-u26PhT9sSR-31">
          <mxGeometry width="50" height="50" relative="1" as="geometry">
            <mxPoint x="43" y="47" as="sourcePoint" />
            <mxPoint x="34" y="53" as="targetPoint" />
          </mxGeometry>
        </mxCell>
        <mxCell id="srKJ6zcgj-u26PhT9sSR-33" value="cnt == 4 &amp;amp;&lt;br&gt;!D_wait" style="text;html=1;strokeColor=none;fillColor=none;align=center;verticalAlign=middle;whiteSpace=wrap;rounded=0;" vertex="1" parent="1">
          <mxGeometry x="280" y="358" width="60" height="30" as="geometry" />
        </mxCell>
        <mxCell id="srKJ6zcgj-u26PhT9sSR-34" value="" style="endArrow=classic;html=1;rounded=0;exitX=0.029;exitY=0.669;exitDx=0;exitDy=0;entryX=0.982;entryY=0.65;entryDx=0;entryDy=0;entryPerimeter=0;exitPerimeter=0;" edge="1" parent="1" source="srKJ6zcgj-u26PhT9sSR-4" target="srKJ6zcgj-u26PhT9sSR-1">
          <mxGeometry width="50" height="50" relative="1" as="geometry">
            <mxPoint x="410" y="387" as="sourcePoint" />
            <mxPoint x="220" y="387" as="targetPoint" />
          </mxGeometry>
        </mxCell>
        <mxCell id="srKJ6zcgj-u26PhT9sSR-35" value="cnt != 4 | D_wait" style="text;html=1;strokeColor=none;fillColor=none;align=center;verticalAlign=middle;whiteSpace=wrap;rounded=0;" vertex="1" parent="1">
          <mxGeometry x="480" y="272" width="100" height="30" as="geometry" />
        </mxCell>
      </root>
    </mxGraphModel>
  </diagram>
  <diagram id="mN68mJi0qcZIerOGleA-" name="DRAM">
    <mxGraphModel dx="982" dy="552" grid="1" gridSize="10" guides="1" tooltips="1" connect="1" arrows="1" fold="1" page="1" pageScale="1" pageWidth="850" pageHeight="1100" math="0" shadow="0">
      <root>
        <mxCell id="0" />
        <mxCell id="1" parent="0" />
        <mxCell id="ZxDXws7JCHEIqIP7MTAh-1" value="S_init" style="ellipse;whiteSpace=wrap;html=1;" vertex="1" parent="1">
          <mxGeometry x="100" y="310" width="120" height="120" as="geometry" />
        </mxCell>
        <mxCell id="ZxDXws7JCHEIqIP7MTAh-2" value="S_act" style="ellipse;whiteSpace=wrap;html=1;" vertex="1" parent="1">
          <mxGeometry x="100" y="510" width="120" height="120" as="geometry" />
        </mxCell>
        <mxCell id="ZxDXws7JCHEIqIP7MTAh-21" value="" style="group;rotation=-99;" vertex="1" connectable="0" parent="1">
          <mxGeometry x="91" y="597" width="50.09999999999991" height="55" as="geometry" />
        </mxCell>
        <mxCell id="ZxDXws7JCHEIqIP7MTAh-22" value="" style="verticalLabelPosition=bottom;verticalAlign=top;html=1;shape=mxgraph.basic.arc;startAngle=0.3;endAngle=0.8852538499623647;rotation=-9;" vertex="1" parent="ZxDXws7JCHEIqIP7MTAh-21">
          <mxGeometry x="-2" y="3" width="55" height="50" as="geometry" />
        </mxCell>
        <mxCell id="ZxDXws7JCHEIqIP7MTAh-23" value="" style="endArrow=classic;html=1;rounded=0;entryX=0.28;entryY=0.05;entryDx=0;entryDy=0;entryPerimeter=0;exitX=0.158;exitY=0.132;exitDx=0;exitDy=0;exitPerimeter=0;" edge="1" parent="ZxDXws7JCHEIqIP7MTAh-21" source="ZxDXws7JCHEIqIP7MTAh-22">
          <mxGeometry width="50" height="50" relative="1" as="geometry">
            <mxPoint x="3" y="12" as="sourcePoint" />
            <mxPoint x="11" y="4" as="targetPoint" />
          </mxGeometry>
        </mxCell>
        <mxCell id="ZxDXws7JCHEIqIP7MTAh-30" value="S_pre" style="ellipse;whiteSpace=wrap;html=1;" vertex="1" parent="1">
          <mxGeometry x="530" y="510" width="120" height="120" as="geometry" />
        </mxCell>
        <mxCell id="ZxDXws7JCHEIqIP7MTAh-31" value="S_write" style="ellipse;whiteSpace=wrap;html=1;" vertex="1" parent="1">
          <mxGeometry x="310" y="597" width="120" height="120" as="geometry" />
        </mxCell>
        <mxCell id="ZxDXws7JCHEIqIP7MTAh-32" value="S_read" style="ellipse;whiteSpace=wrap;html=1;" vertex="1" parent="1">
          <mxGeometry x="310" y="415" width="120" height="120" as="geometry" />
        </mxCell>
        <mxCell id="ZxDXws7JCHEIqIP7MTAh-33" value="" style="group;rotation=-10;" vertex="1" connectable="0" parent="1">
          <mxGeometry x="80" y="300" width="50.09999999999991" height="55" as="geometry" />
        </mxCell>
        <mxCell id="ZxDXws7JCHEIqIP7MTAh-34" value="" style="verticalLabelPosition=bottom;verticalAlign=top;html=1;shape=mxgraph.basic.arc;startAngle=0.3;endAngle=0.8852538499623647;rotation=80;" vertex="1" parent="ZxDXws7JCHEIqIP7MTAh-33">
          <mxGeometry x="-3" y="3" width="55" height="50" as="geometry" />
        </mxCell>
        <mxCell id="ZxDXws7JCHEIqIP7MTAh-35" value="" style="endArrow=classic;html=1;rounded=0;entryX=0.28;entryY=0.05;entryDx=0;entryDy=0;entryPerimeter=0;exitX=0.158;exitY=0.132;exitDx=0;exitDy=0;exitPerimeter=0;" edge="1" parent="ZxDXws7JCHEIqIP7MTAh-33" source="ZxDXws7JCHEIqIP7MTAh-34">
          <mxGeometry width="50" height="50" relative="1" as="geometry">
            <mxPoint x="40" y="5" as="sourcePoint" />
            <mxPoint x="48" y="13" as="targetPoint" />
          </mxGeometry>
        </mxCell>
        <mxCell id="ZxDXws7JCHEIqIP7MTAh-36" value="!AR_done &amp;amp; !AW_done" style="text;html=1;strokeColor=none;fillColor=none;align=center;verticalAlign=middle;whiteSpace=wrap;rounded=0;" vertex="1" parent="1">
          <mxGeometry x="60.10000000000002" y="270" width="70" height="30" as="geometry" />
        </mxCell>
        <mxCell id="ZxDXws7JCHEIqIP7MTAh-37" value="" style="endArrow=classic;html=1;rounded=0;exitX=0.5;exitY=1;exitDx=0;exitDy=0;entryX=0.5;entryY=0;entryDx=0;entryDy=0;" edge="1" parent="1" source="ZxDXws7JCHEIqIP7MTAh-1" target="ZxDXws7JCHEIqIP7MTAh-2">
          <mxGeometry width="50" height="50" relative="1" as="geometry">
            <mxPoint x="350" y="470" as="sourcePoint" />
            <mxPoint x="400" y="420" as="targetPoint" />
          </mxGeometry>
        </mxCell>
        <mxCell id="ZxDXws7JCHEIqIP7MTAh-38" value="AR_done | AW_done" style="text;html=1;strokeColor=none;fillColor=none;align=center;verticalAlign=middle;whiteSpace=wrap;rounded=0;" vertex="1" parent="1">
          <mxGeometry x="40" y="460" width="120.05" height="30" as="geometry" />
        </mxCell>
        <mxCell id="ZxDXws7JCHEIqIP7MTAh-39" value="!delay_done" style="text;html=1;strokeColor=none;fillColor=none;align=center;verticalAlign=middle;whiteSpace=wrap;rounded=0;" vertex="1" parent="1">
          <mxGeometry x="71.10000000000002" y="652" width="70" height="30" as="geometry" />
        </mxCell>
        <mxCell id="ZxDXws7JCHEIqIP7MTAh-40" value="delay_done &amp;amp;&lt;br&gt;write" style="text;html=1;strokeColor=none;fillColor=none;align=center;verticalAlign=middle;whiteSpace=wrap;rounded=0;rotation=20;" vertex="1" parent="1">
          <mxGeometry x="220" y="600" width="90" height="30" as="geometry" />
        </mxCell>
        <mxCell id="ZxDXws7JCHEIqIP7MTAh-41" value="delay_done &amp;amp;&lt;br&gt;!write" style="text;html=1;strokeColor=none;fillColor=none;align=center;verticalAlign=middle;whiteSpace=wrap;rounded=0;rotation=-25;" vertex="1" parent="1">
          <mxGeometry x="200" y="470" width="90" height="30" as="geometry" />
        </mxCell>
        <mxCell id="ZxDXws7JCHEIqIP7MTAh-42" value="" style="endArrow=classic;html=1;rounded=0;entryX=0;entryY=0.5;entryDx=0;entryDy=0;exitX=1;exitY=0;exitDx=0;exitDy=0;" edge="1" parent="1" source="ZxDXws7JCHEIqIP7MTAh-2" target="ZxDXws7JCHEIqIP7MTAh-32">
          <mxGeometry width="50" height="50" relative="1" as="geometry">
            <mxPoint x="350" y="530" as="sourcePoint" />
            <mxPoint x="400" y="480" as="targetPoint" />
          </mxGeometry>
        </mxCell>
        <mxCell id="ZxDXws7JCHEIqIP7MTAh-43" value="" style="endArrow=classic;html=1;rounded=0;entryX=0;entryY=0.5;entryDx=0;entryDy=0;exitX=1;exitY=1;exitDx=0;exitDy=0;" edge="1" parent="1" source="ZxDXws7JCHEIqIP7MTAh-2" target="ZxDXws7JCHEIqIP7MTAh-31">
          <mxGeometry width="50" height="50" relative="1" as="geometry">
            <mxPoint x="212.42640687119297" y="537.5735931288073" as="sourcePoint" />
            <mxPoint x="319.9999999999984" y="484.9999999999998" as="targetPoint" />
          </mxGeometry>
        </mxCell>
        <mxCell id="ZxDXws7JCHEIqIP7MTAh-44" value="" style="endArrow=classic;html=1;rounded=0;entryX=0;entryY=1;entryDx=0;entryDy=0;exitX=1;exitY=0.5;exitDx=0;exitDy=0;" edge="1" parent="1" source="ZxDXws7JCHEIqIP7MTAh-31" target="ZxDXws7JCHEIqIP7MTAh-30">
          <mxGeometry width="50" height="50" relative="1" as="geometry">
            <mxPoint x="350" y="530" as="sourcePoint" />
            <mxPoint x="400" y="480" as="targetPoint" />
          </mxGeometry>
        </mxCell>
        <mxCell id="ZxDXws7JCHEIqIP7MTAh-45" value="" style="endArrow=classic;html=1;rounded=0;entryX=0;entryY=0;entryDx=0;entryDy=0;exitX=1;exitY=0.5;exitDx=0;exitDy=0;" edge="1" parent="1" source="ZxDXws7JCHEIqIP7MTAh-32" target="ZxDXws7JCHEIqIP7MTAh-30">
          <mxGeometry width="50" height="50" relative="1" as="geometry">
            <mxPoint x="350" y="530" as="sourcePoint" />
            <mxPoint x="400" y="480" as="targetPoint" />
          </mxGeometry>
        </mxCell>
        <mxCell id="ZxDXws7JCHEIqIP7MTAh-46" value="delay_done &amp;amp;&lt;br&gt;R_done_last" style="text;html=1;strokeColor=none;fillColor=none;align=center;verticalAlign=middle;whiteSpace=wrap;rounded=0;rotation=25;" vertex="1" parent="1">
          <mxGeometry x="450" y="470" width="90" height="30" as="geometry" />
        </mxCell>
        <mxCell id="ZxDXws7JCHEIqIP7MTAh-47" value="delay_done" style="text;html=1;strokeColor=none;fillColor=none;align=center;verticalAlign=middle;whiteSpace=wrap;rounded=0;rotation=-20;" vertex="1" parent="1">
          <mxGeometry x="440" y="609.5" width="90" height="30" as="geometry" />
        </mxCell>
        <mxCell id="ZxDXws7JCHEIqIP7MTAh-48" value="" style="group;rotation=-135;" vertex="1" connectable="0" parent="1">
          <mxGeometry x="340" y="700" width="50.09999999999991" height="55" as="geometry" />
        </mxCell>
        <mxCell id="ZxDXws7JCHEIqIP7MTAh-49" value="" style="verticalLabelPosition=bottom;verticalAlign=top;html=1;shape=mxgraph.basic.arc;startAngle=0.3;endAngle=0.8852538499623647;rotation=-45;" vertex="1" parent="ZxDXws7JCHEIqIP7MTAh-48">
          <mxGeometry x="-2" y="3" width="55" height="50" as="geometry" />
        </mxCell>
        <mxCell id="ZxDXws7JCHEIqIP7MTAh-50" value="" style="endArrow=classic;html=1;rounded=0;entryX=0.28;entryY=0.05;entryDx=0;entryDy=0;entryPerimeter=0;exitX=0.158;exitY=0.132;exitDx=0;exitDy=0;exitPerimeter=0;" edge="1" parent="ZxDXws7JCHEIqIP7MTAh-48" source="ZxDXws7JCHEIqIP7MTAh-49">
          <mxGeometry width="50" height="50" relative="1" as="geometry">
            <mxPoint x="-2" y="28" as="sourcePoint" />
            <mxPoint x="-1" y="17" as="targetPoint" />
          </mxGeometry>
        </mxCell>
        <mxCell id="ZxDXws7JCHEIqIP7MTAh-51" value="!delay_done" style="text;html=1;strokeColor=none;fillColor=none;align=center;verticalAlign=middle;whiteSpace=wrap;rounded=0;" vertex="1" parent="1">
          <mxGeometry x="330.05000000000007" y="755" width="70" height="30" as="geometry" />
        </mxCell>
        <mxCell id="ZxDXws7JCHEIqIP7MTAh-53" value="" style="group;rotation=35;" vertex="1" connectable="0" parent="1">
          <mxGeometry x="340" y="378" width="50.09999999999991" height="55" as="geometry" />
        </mxCell>
        <mxCell id="ZxDXws7JCHEIqIP7MTAh-54" value="" style="verticalLabelPosition=bottom;verticalAlign=top;html=1;shape=mxgraph.basic.arc;startAngle=0.3;endAngle=0.8852538499623647;rotation=125;" vertex="1" parent="ZxDXws7JCHEIqIP7MTAh-53">
          <mxGeometry x="-3" y="2" width="55" height="50" as="geometry" />
        </mxCell>
        <mxCell id="ZxDXws7JCHEIqIP7MTAh-55" value="" style="endArrow=classic;html=1;rounded=0;entryX=0.28;entryY=0.05;entryDx=0;entryDy=0;entryPerimeter=0;exitX=0.158;exitY=0.132;exitDx=0;exitDy=0;exitPerimeter=0;" edge="1" parent="ZxDXws7JCHEIqIP7MTAh-53" source="ZxDXws7JCHEIqIP7MTAh-54">
          <mxGeometry width="50" height="50" relative="1" as="geometry">
            <mxPoint x="52" y="22" as="sourcePoint" />
            <mxPoint x="51" y="34" as="targetPoint" />
          </mxGeometry>
        </mxCell>
        <mxCell id="ZxDXws7JCHEIqIP7MTAh-56" value="!delay_done | !R_done_last" style="text;html=1;strokeColor=none;fillColor=none;align=center;verticalAlign=middle;whiteSpace=wrap;rounded=0;" vertex="1" parent="1">
          <mxGeometry x="290.05" y="355" width="159.95" height="30" as="geometry" />
        </mxCell>
        <mxCell id="ZxDXws7JCHEIqIP7MTAh-61" value="" style="group;rotation=130;" vertex="1" connectable="0" parent="1">
          <mxGeometry x="635" y="543" width="50.09999999999991" height="55" as="geometry" />
        </mxCell>
        <mxCell id="ZxDXws7JCHEIqIP7MTAh-62" value="" style="verticalLabelPosition=bottom;verticalAlign=top;html=1;shape=mxgraph.basic.arc;startAngle=0.3;endAngle=0.8852538499623647;rotation=220;" vertex="1" parent="ZxDXws7JCHEIqIP7MTAh-61">
          <mxGeometry x="-2" y="2" width="55" height="50" as="geometry" />
        </mxCell>
        <mxCell id="ZxDXws7JCHEIqIP7MTAh-63" value="" style="endArrow=classic;html=1;rounded=0;entryX=0.28;entryY=0.05;entryDx=0;entryDy=0;entryPerimeter=0;exitX=0.158;exitY=0.132;exitDx=0;exitDy=0;exitPerimeter=0;" edge="1" parent="ZxDXws7JCHEIqIP7MTAh-61" source="ZxDXws7JCHEIqIP7MTAh-62">
          <mxGeometry width="50" height="50" relative="1" as="geometry">
            <mxPoint x="28" y="54" as="sourcePoint" />
            <mxPoint x="17" y="54" as="targetPoint" />
          </mxGeometry>
        </mxCell>
        <mxCell id="ZxDXws7JCHEIqIP7MTAh-64" value="!delay_done" style="text;html=1;strokeColor=none;fillColor=none;align=center;verticalAlign=middle;whiteSpace=wrap;rounded=0;" vertex="1" parent="1">
          <mxGeometry x="635" y="600" width="70" height="30" as="geometry" />
        </mxCell>
        <mxCell id="ZxDXws7JCHEIqIP7MTAh-66" value="" style="endArrow=classic;html=1;rounded=0;exitX=0.5;exitY=0;exitDx=0;exitDy=0;entryX=0.5;entryY=0;entryDx=0;entryDy=0;" edge="1" parent="1" source="ZxDXws7JCHEIqIP7MTAh-30" target="ZxDXws7JCHEIqIP7MTAh-1">
          <mxGeometry width="50" height="50" relative="1" as="geometry">
            <mxPoint x="360" y="400" as="sourcePoint" />
            <mxPoint x="410" y="350" as="targetPoint" />
            <Array as="points">
              <mxPoint x="590" y="310" />
            </Array>
          </mxGeometry>
        </mxCell>
        <mxCell id="ZxDXws7JCHEIqIP7MTAh-67" value="delay_done" style="text;html=1;strokeColor=none;fillColor=none;align=center;verticalAlign=middle;whiteSpace=wrap;rounded=0;" vertex="1" parent="1">
          <mxGeometry x="520" y="282" width="70" height="30" as="geometry" />
        </mxCell>
      </root>
    </mxGraphModel>
  </diagram>
  <diagram id="ZhbEoalFvD0rXqxRw8C7" name="ROM">
    <mxGraphModel dx="1213" dy="682" grid="1" gridSize="10" guides="1" tooltips="1" connect="1" arrows="1" fold="1" page="1" pageScale="1" pageWidth="850" pageHeight="1100" math="0" shadow="0">
      <root>
        <mxCell id="0" />
        <mxCell id="1" parent="0" />
        <mxCell id="WvUvGRBS8uR_Ry1jG3W1-1" value="S_address" style="ellipse;whiteSpace=wrap;html=1;" vertex="1" parent="1">
          <mxGeometry x="100" y="310" width="120" height="120" as="geometry" />
        </mxCell>
        <mxCell id="WvUvGRBS8uR_Ry1jG3W1-2" value="S_read_data" style="ellipse;whiteSpace=wrap;html=1;" vertex="1" parent="1">
          <mxGeometry x="100" y="540" width="120" height="120" as="geometry" />
        </mxCell>
        <mxCell id="WvUvGRBS8uR_Ry1jG3W1-3" value="S_response" style="ellipse;whiteSpace=wrap;html=1;" vertex="1" parent="1">
          <mxGeometry x="410" y="540" width="120" height="120" as="geometry" />
        </mxCell>
        <mxCell id="WvUvGRBS8uR_Ry1jG3W1-4" value="S_write_data" style="ellipse;whiteSpace=wrap;html=1;" vertex="1" parent="1">
          <mxGeometry x="410" y="310" width="120" height="120" as="geometry" />
        </mxCell>
        <mxCell id="WvUvGRBS8uR_Ry1jG3W1-21" value="" style="group;rotation=-99;" vertex="1" connectable="0" parent="1">
          <mxGeometry x="100" y="630" width="50.09999999999991" height="55" as="geometry" />
        </mxCell>
        <mxCell id="WvUvGRBS8uR_Ry1jG3W1-22" value="" style="verticalLabelPosition=bottom;verticalAlign=top;html=1;shape=mxgraph.basic.arc;startAngle=0.3;endAngle=0.8852538499623647;rotation=-9;" vertex="1" parent="WvUvGRBS8uR_Ry1jG3W1-21">
          <mxGeometry x="-2" y="3" width="55" height="50" as="geometry" />
        </mxCell>
        <mxCell id="WvUvGRBS8uR_Ry1jG3W1-23" value="" style="endArrow=classic;html=1;rounded=0;entryX=0.28;entryY=0.05;entryDx=0;entryDy=0;entryPerimeter=0;exitX=0.158;exitY=0.132;exitDx=0;exitDy=0;exitPerimeter=0;" edge="1" parent="WvUvGRBS8uR_Ry1jG3W1-21" source="WvUvGRBS8uR_Ry1jG3W1-22">
          <mxGeometry width="50" height="50" relative="1" as="geometry">
            <mxPoint x="3" y="12" as="sourcePoint" />
            <mxPoint x="11" y="4" as="targetPoint" />
          </mxGeometry>
        </mxCell>
        <mxCell id="WvUvGRBS8uR_Ry1jG3W1-30" value="" style="endArrow=classic;html=1;rounded=0;entryX=0.5;entryY=0;entryDx=0;entryDy=0;exitX=0.679;exitY=0.964;exitDx=0;exitDy=0;exitPerimeter=0;" edge="1" parent="1" source="WvUvGRBS8uR_Ry1jG3W1-4">
          <mxGeometry width="50" height="50" relative="1" as="geometry">
            <mxPoint x="491" y="435" as="sourcePoint" />
            <mxPoint x="491" y="545" as="targetPoint" />
          </mxGeometry>
        </mxCell>
        <mxCell id="WvUvGRBS8uR_Ry1jG3W1-31" value="W_done_last" style="text;html=1;strokeColor=none;fillColor=none;align=center;verticalAlign=middle;whiteSpace=wrap;rounded=0;" vertex="1" parent="1">
          <mxGeometry x="500" y="480" width="60" height="30" as="geometry" />
        </mxCell>
        <mxCell id="WvUvGRBS8uR_Ry1jG3W1-32" value="!W_done_last" style="text;html=1;strokeColor=none;fillColor=none;align=center;verticalAlign=middle;whiteSpace=wrap;rounded=0;" vertex="1" parent="1">
          <mxGeometry x="500" y="270" width="60" height="30" as="geometry" />
        </mxCell>
        <mxCell id="WvUvGRBS8uR_Ry1jG3W1-33" value="" style="group;rotation=90;" vertex="1" connectable="0" parent="1">
          <mxGeometry x="497.06" y="295.95" width="50" height="55" as="geometry" />
        </mxCell>
        <mxCell id="WvUvGRBS8uR_Ry1jG3W1-34" value="" style="verticalLabelPosition=bottom;verticalAlign=top;html=1;shape=mxgraph.basic.arc;startAngle=0.3;endAngle=0.8852538499623647;rotation=180;" vertex="1" parent="WvUvGRBS8uR_Ry1jG3W1-33">
          <mxGeometry x="-3" y="2" width="54.89021956087834" height="50" as="geometry" />
        </mxCell>
        <mxCell id="WvUvGRBS8uR_Ry1jG3W1-35" value="" style="endArrow=classic;html=1;rounded=0;entryX=0.28;entryY=0.05;entryDx=0;entryDy=0;entryPerimeter=0;exitX=0.158;exitY=0.132;exitDx=0;exitDy=0;exitPerimeter=0;" edge="1" parent="WvUvGRBS8uR_Ry1jG3W1-33" source="WvUvGRBS8uR_Ry1jG3W1-34">
          <mxGeometry width="50" height="50" relative="1" as="geometry">
            <mxPoint x="46" y="47" as="sourcePoint" />
            <mxPoint x="35" y="54" as="targetPoint" />
          </mxGeometry>
        </mxCell>
        <mxCell id="WvUvGRBS8uR_Ry1jG3W1-36" value="" style="endArrow=classic;html=1;rounded=0;entryX=0.5;entryY=1;entryDx=0;entryDy=0;exitX=0.325;exitY=0.032;exitDx=0;exitDy=0;exitPerimeter=0;" edge="1" parent="1" source="WvUvGRBS8uR_Ry1jG3W1-3">
          <mxGeometry width="50" height="50" relative="1" as="geometry">
            <mxPoint x="449" y="536" as="sourcePoint" />
            <mxPoint x="449" y="426" as="targetPoint" />
          </mxGeometry>
        </mxCell>
        <mxCell id="WvUvGRBS8uR_Ry1jG3W1-38" value="B_done &amp;amp;&lt;br&gt;AW_done" style="text;html=1;strokeColor=none;fillColor=none;align=center;verticalAlign=middle;whiteSpace=wrap;rounded=0;" vertex="1" parent="1">
          <mxGeometry x="390" y="480" width="60" height="30" as="geometry" />
        </mxCell>
        <mxCell id="WvUvGRBS8uR_Ry1jG3W1-39" value="B_done &amp;amp;&lt;br&gt;AR_done" style="text;html=1;strokeColor=none;fillColor=none;align=center;verticalAlign=middle;whiteSpace=wrap;rounded=0;" vertex="1" parent="1">
          <mxGeometry x="290" y="548" width="60" height="30" as="geometry" />
        </mxCell>
        <mxCell id="WvUvGRBS8uR_Ry1jG3W1-40" value="&lt;span style=&quot;color: rgba(0, 0, 0, 0); font-family: monospace; font-size: 0px; text-align: start;&quot;&gt;%3CmxGraphModel%3E%3Croot%3E%3CmxCell%20id%3D%220%22%2F%3E%3CmxCell%20id%3D%221%22%20parent%3D%220%22%2F%3E%3CmxCell%20id%3D%222%22%20value%3D%22!B_done%22%20style%3D%22text%3Bhtml%3D1%3BstrokeColor%3Dnone%3BfillColor%3Dnone%3Balign%3Dcenter%3BverticalAlign%3Dmiddle%3BwhiteSpace%3Dwrap%3Brounded%3D0%3B%22%20vertex%3D%221%22%20parent%3D%221%22%3E%3CmxGeometry%20x%3D%22483.05%22%20y%3D%22679%22%20width%3D%2260%22%20height%3D%2230%22%20as%3D%22geometry%22%2F%3E%3C%2FmxCell%3E%3C%2Froot%3E%3C%2FmxGraphModel%3E&lt;/span&gt;" style="text;html=1;align=center;verticalAlign=middle;resizable=0;points=[];autosize=1;strokeColor=none;fillColor=none;" vertex="1" parent="1">
          <mxGeometry x="55" y="490" width="20" height="30" as="geometry" />
        </mxCell>
        <mxCell id="WvUvGRBS8uR_Ry1jG3W1-41" value="" style="endArrow=classic;html=1;rounded=0;entryX=0.978;entryY=0.635;entryDx=0;entryDy=0;exitX=0;exitY=0;exitDx=0;exitDy=0;entryPerimeter=0;" edge="1" parent="1" target="WvUvGRBS8uR_Ry1jG3W1-1">
          <mxGeometry width="50" height="50" relative="1" as="geometry">
            <mxPoint x="437.57359312880726" y="549.5735931288073" as="sourcePoint" />
            <mxPoint x="225.44000000000005" y="383.36" as="targetPoint" />
          </mxGeometry>
        </mxCell>
        <mxCell id="WvUvGRBS8uR_Ry1jG3W1-42" value="" style="endArrow=classic;html=1;rounded=0;entryX=0.968;entryY=0.307;entryDx=0;entryDy=0;exitX=0.018;exitY=0.322;exitDx=0;exitDy=0;entryPerimeter=0;exitPerimeter=0;" edge="1" parent="1" source="WvUvGRBS8uR_Ry1jG3W1-3" target="WvUvGRBS8uR_Ry1jG3W1-2">
          <mxGeometry width="50" height="50" relative="1" as="geometry">
            <mxPoint x="410" y="578" as="sourcePoint" />
            <mxPoint x="220" y="578" as="targetPoint" />
          </mxGeometry>
        </mxCell>
        <mxCell id="WvUvGRBS8uR_Ry1jG3W1-43" value="B_done" style="text;html=1;strokeColor=none;fillColor=none;align=center;verticalAlign=middle;whiteSpace=wrap;rounded=0;rotation=36;" vertex="1" parent="1">
          <mxGeometry x="297.53" y="440" width="60" height="30" as="geometry" />
        </mxCell>
        <mxCell id="WvUvGRBS8uR_Ry1jG3W1-44" value="!B_done" style="text;html=1;strokeColor=none;fillColor=none;align=center;verticalAlign=middle;whiteSpace=wrap;rounded=0;" vertex="1" parent="1">
          <mxGeometry x="483.05" y="679" width="60" height="30" as="geometry" />
        </mxCell>
        <mxCell id="WvUvGRBS8uR_Ry1jG3W1-45" value="" style="group;rotation=-175;" vertex="1" connectable="0" parent="1">
          <mxGeometry x="488" y="624" width="50.09999999999991" height="55" as="geometry" />
        </mxCell>
        <mxCell id="WvUvGRBS8uR_Ry1jG3W1-46" value="" style="verticalLabelPosition=bottom;verticalAlign=top;html=1;shape=mxgraph.basic.arc;startAngle=0.3;endAngle=0.8852538499623647;rotation=-85;" vertex="1" parent="WvUvGRBS8uR_Ry1jG3W1-45">
          <mxGeometry x="-2" y="2" width="55" height="50" as="geometry" />
        </mxCell>
        <mxCell id="WvUvGRBS8uR_Ry1jG3W1-47" value="" style="endArrow=classic;html=1;rounded=0;entryX=0.28;entryY=0.05;entryDx=0;entryDy=0;entryPerimeter=0;exitX=0.158;exitY=0.132;exitDx=0;exitDy=0;exitPerimeter=0;" edge="1" parent="WvUvGRBS8uR_Ry1jG3W1-45" source="WvUvGRBS8uR_Ry1jG3W1-46">
          <mxGeometry width="50" height="50" relative="1" as="geometry">
            <mxPoint x="5" y="46" as="sourcePoint" />
            <mxPoint x="-1" y="35" as="targetPoint" />
          </mxGeometry>
        </mxCell>
        <mxCell id="WvUvGRBS8uR_Ry1jG3W1-48" value="!R_done_last" style="text;html=1;strokeColor=none;fillColor=none;align=center;verticalAlign=middle;whiteSpace=wrap;rounded=0;" vertex="1" parent="1">
          <mxGeometry x="140" y="685" width="60" height="30" as="geometry" />
        </mxCell>
        <mxCell id="WvUvGRBS8uR_Ry1jG3W1-50" value="" style="endArrow=classic;html=1;rounded=0;entryX=0.225;entryY=0.904;entryDx=0;entryDy=0;entryPerimeter=0;exitX=0.332;exitY=0.03;exitDx=0;exitDy=0;exitPerimeter=0;" edge="1" parent="1" source="WvUvGRBS8uR_Ry1jG3W1-2">
          <mxGeometry width="50" height="50" relative="1" as="geometry">
            <mxPoint x="140" y="540" as="sourcePoint" />
            <mxPoint x="140" y="426.2399999999999" as="targetPoint" />
          </mxGeometry>
        </mxCell>
        <mxCell id="WvUvGRBS8uR_Ry1jG3W1-51" value="R_done_last" style="text;html=1;strokeColor=none;fillColor=none;align=center;verticalAlign=middle;whiteSpace=wrap;rounded=0;" vertex="1" parent="1">
          <mxGeometry x="75" y="480" width="60" height="30" as="geometry" />
        </mxCell>
        <mxCell id="WvUvGRBS8uR_Ry1jG3W1-52" value="R_done_last &amp;amp;&lt;br&gt;AR_done" style="text;html=1;strokeColor=none;fillColor=none;align=center;verticalAlign=middle;whiteSpace=wrap;rounded=0;" vertex="1" parent="1">
          <mxGeometry x="35.05" y="685" width="84.95" height="30" as="geometry" />
        </mxCell>
        <mxCell id="WvUvGRBS8uR_Ry1jG3W1-53" value="R_done_last &amp;amp;&lt;br&gt;AW_done" style="text;html=1;strokeColor=none;fillColor=none;align=center;verticalAlign=middle;whiteSpace=wrap;rounded=0;" vertex="1" parent="1">
          <mxGeometry x="285.05" y="730" width="84.95" height="30" as="geometry" />
        </mxCell>
        <mxCell id="WvUvGRBS8uR_Ry1jG3W1-54" value="" style="endArrow=classic;html=1;rounded=0;exitX=0.986;exitY=0.593;exitDx=0;exitDy=0;entryX=1;entryY=0.5;entryDx=0;entryDy=0;exitPerimeter=0;" edge="1" parent="1" source="WvUvGRBS8uR_Ry1jG3W1-2" target="WvUvGRBS8uR_Ry1jG3W1-4">
          <mxGeometry width="50" height="50" relative="1" as="geometry">
            <mxPoint x="330" y="570" as="sourcePoint" />
            <mxPoint x="380" y="520" as="targetPoint" />
            <Array as="points">
              <mxPoint x="280" y="611" />
              <mxPoint x="280" y="760" />
              <mxPoint x="590" y="760" />
              <mxPoint x="590" y="370" />
            </Array>
          </mxGeometry>
        </mxCell>
        <mxCell id="WvUvGRBS8uR_Ry1jG3W1-55" value="" style="endArrow=classic;html=1;rounded=0;entryX=0.046;entryY=0.263;entryDx=0;entryDy=0;exitX=1;exitY=1;exitDx=0;exitDy=0;entryPerimeter=0;" edge="1" parent="1">
          <mxGeometry width="50" height="50" relative="1" as="geometry">
            <mxPoint x="209.42640687119297" y="406.42640687119297" as="sourcePoint" />
            <mxPoint x="422.52" y="565.56" as="targetPoint" />
          </mxGeometry>
        </mxCell>
        <mxCell id="WvUvGRBS8uR_Ry1jG3W1-56" value="A_done &amp;amp;&lt;br&gt;W_done" style="text;html=1;strokeColor=none;fillColor=none;align=center;verticalAlign=middle;whiteSpace=wrap;rounded=0;rotation=40;" vertex="1" parent="1">
          <mxGeometry x="270" y="480" width="60" height="30" as="geometry" />
        </mxCell>
        <mxCell id="WvUvGRBS8uR_Ry1jG3W1-57" value="AW_done" style="text;html=1;strokeColor=none;fillColor=none;align=center;verticalAlign=middle;whiteSpace=wrap;rounded=0;rotation=0;" vertex="1" parent="1">
          <mxGeometry x="285.05" y="340" width="60" height="30" as="geometry" />
        </mxCell>
        <mxCell id="WvUvGRBS8uR_Ry1jG3W1-58" value="" style="endArrow=classic;html=1;rounded=0;entryX=0;entryY=0.5;entryDx=0;entryDy=0;exitX=1;exitY=0.5;exitDx=0;exitDy=0;" edge="1" parent="1" source="WvUvGRBS8uR_Ry1jG3W1-1" target="WvUvGRBS8uR_Ry1jG3W1-4">
          <mxGeometry width="50" height="50" relative="1" as="geometry">
            <mxPoint x="330" y="510" as="sourcePoint" />
            <mxPoint x="380" y="460" as="targetPoint" />
          </mxGeometry>
        </mxCell>
        <mxCell id="WvUvGRBS8uR_Ry1jG3W1-59" value="" style="endArrow=classic;html=1;rounded=0;exitX=0.663;exitY=0.964;exitDx=0;exitDy=0;exitPerimeter=0;" edge="1" parent="1" source="WvUvGRBS8uR_Ry1jG3W1-1">
          <mxGeometry width="50" height="50" relative="1" as="geometry">
            <mxPoint x="180" y="434" as="sourcePoint" />
            <mxPoint x="180" y="544" as="targetPoint" />
          </mxGeometry>
        </mxCell>
        <mxCell id="WvUvGRBS8uR_Ry1jG3W1-60" value="AR_done" style="text;html=1;strokeColor=none;fillColor=none;align=center;verticalAlign=middle;whiteSpace=wrap;rounded=0;rotation=0;" vertex="1" parent="1">
          <mxGeometry x="180" y="480" width="60" height="30" as="geometry" />
        </mxCell>
        <mxCell id="WvUvGRBS8uR_Ry1jG3W1-62" value="" style="group;rotation=20;" vertex="1" connectable="0" parent="1">
          <mxGeometry x="104.1" y="282" width="50" height="55" as="geometry" />
        </mxCell>
        <mxCell id="WvUvGRBS8uR_Ry1jG3W1-63" value="" style="verticalLabelPosition=bottom;verticalAlign=top;html=1;shape=mxgraph.basic.arc;startAngle=0.3;endAngle=0.8852538499623647;rotation=110;" vertex="1" parent="WvUvGRBS8uR_Ry1jG3W1-62">
          <mxGeometry x="-3" y="3" width="54.89021956087834" height="50" as="geometry" />
        </mxCell>
        <mxCell id="WvUvGRBS8uR_Ry1jG3W1-64" value="" style="endArrow=classic;html=1;rounded=0;entryX=0.28;entryY=0.05;entryDx=0;entryDy=0;entryPerimeter=0;exitX=0.158;exitY=0.132;exitDx=0;exitDy=0;exitPerimeter=0;" edge="1" parent="WvUvGRBS8uR_Ry1jG3W1-62" source="WvUvGRBS8uR_Ry1jG3W1-63">
          <mxGeometry width="50" height="50" relative="1" as="geometry">
            <mxPoint x="51" y="14" as="sourcePoint" />
            <mxPoint x="53" y="27" as="targetPoint" />
          </mxGeometry>
        </mxCell>
        <mxCell id="WvUvGRBS8uR_Ry1jG3W1-66" value="!AW_done &amp;amp;&lt;br&gt;!AR_done" style="text;html=1;strokeColor=none;fillColor=none;align=center;verticalAlign=middle;whiteSpace=wrap;rounded=0;rotation=0;" vertex="1" parent="1">
          <mxGeometry x="87.1" y="252" width="75.9" height="30" as="geometry" />
        </mxCell>
      </root>
    </mxGraphModel>
  </diagram>
</mxfile>
